# xmcd
#
# Track frame offsets:
#	150
#	27113
#	47910
#	76148
#	136768
#	165468
#	199877
#
# Disc length: 3066 seconds
#
# Revision: 1
# Processed by: cddbd v1.5PL3 Copyright (c) Steve Scherf et al.
# Submitted via: audiograbber 1.82.01
#
DISCID=4f0bf807
DTITLE=Eric Clapton - 1983-04-20 - Bremen, Germany  - Disc 2
DYEAR=1900
DGENRE=
TTITLE0=Eric Clapton - The Shape You're In
TTITLE1=Eric Clapton - Wonderful Tonight
TTITLE2=Eric Clapton - Blues Power
TTITLE3=Eric Clapton - Ramblin On My Mind  - Have You Ever Loved A Woman
TTITLE4=Eric Clapton - Cocaine
TTITLE5=Eric Clapton - Layla
TTITLE6=Eric Clapton - Further On Up The Road
EXTD=
EXTT0=
EXTT1=
EXTT2=
EXTT3=
EXTT4=
EXTT5=
EXTT6=
PLAYORDER=
